<svg width="20" height="20" viewBox="0 0 20 20" fill="none" xmlns="http://www.w3.org/2000/svg">
<mask id="mask0_238_151" style="mask-type:alpha" maskUnits="userSpaceOnUse" x="0" y="0" width="20" height="20">
<rect width="20" height="20" fill="#D9D9D9"/>
</mask>
<g mask="url(#mask0_238_151)">
<path d="M9.00004 10.0001L12.25 13.2501C12.4028 13.4029 12.4792 13.5973 12.4792 13.8334C12.4792 14.0695 12.4028 14.264 12.25 14.4167C12.0973 14.5695 11.9028 14.6459 11.6667 14.6459C11.4306 14.6459 11.2362 14.5695 11.0834 14.4167L7.25004 10.5834C7.16671 10.5001 7.10768 10.4098 7.07296 10.3126C7.03824 10.2154 7.02087 10.1112 7.02087 10.0001C7.02087 9.88897 7.03824 9.7848 7.07296 9.68758C7.10768 9.59036 7.16671 9.50008 7.25004 9.41675L11.0834 5.58341C11.2362 5.43064 11.4306 5.35425 11.6667 5.35425C11.9028 5.35425 12.0973 5.43064 12.25 5.58341C12.4028 5.73619 12.4792 5.93064 12.4792 6.16675C12.4792 6.40286 12.4028 6.5973 12.25 6.75008L9.00004 10.0001Z" fill="#333333"/>
</g>
</svg>
