<svg width="24" height="24" viewBox="0 0 24 24" fill="none" xmlns="http://www.w3.org/2000/svg">
<mask id="mask0_231_1586" style="mask-type:alpha" maskUnits="userSpaceOnUse" x="0" y="0" width="24" height="24">
<rect width="24" height="24" transform="matrix(-1 0 0 1 24 0)" fill="#D9D9D9"/>
</mask>
<g mask="url(#mask0_231_1586)">
<path d="M19 20C19.2833 20 19.5208 19.9042 19.7125 19.7125C19.9042 19.5208 20 19.2833 20 19V10C20 9.71667 19.9042 9.47917 19.7125 9.2875C19.5208 9.09583 19.2833 9 19 9H17C16.7167 9 16.4792 9.09583 16.2875 9.2875C16.0958 9.47917 16 9.71667 16 10V19C16 19.2833 16.0958 19.5208 16.2875 19.7125C16.4792 19.9042 16.7167 20 17 20H19ZM19 8C19.2833 8 19.5208 7.90417 19.7125 7.7125C19.9042 7.52083 20 7.28333 20 7V5C20 4.71667 19.9042 4.47917 19.7125 4.2875C19.5208 4.09583 19.2833 4 19 4H17C16.7167 4 16.4792 4.09583 16.2875 4.2875C16.0958 4.47917 16 4.71667 16 5V7C16 7.28333 16.0958 7.52083 16.2875 7.7125C16.4792 7.90417 16.7167 8 17 8H19ZM13 20C13.2833 20 13.5208 19.9042 13.7125 19.7125C13.9042 19.5208 14 19.2833 14 19V13C14 12.7167 13.9042 12.4792 13.7125 12.2875C13.5208 12.0958 13.2833 12 13 12H11C10.7167 12 10.4792 12.0958 10.2875 12.2875C10.0958 12.4792 10 12.7167 10 13V19C10 19.2833 10.0958 19.5208 10.2875 19.7125C10.4792 19.9042 10.7167 20 11 20H13ZM13 11C13.2833 11 13.5208 10.9042 13.7125 10.7125C13.9042 10.5208 14 10.2833 14 10V8C14 7.71667 13.9042 7.47917 13.7125 7.2875C13.5208 7.09583 13.2833 7 13 7H11C10.7167 7 10.4792 7.09583 10.2875 7.2875C10.0958 7.47917 10 7.71667 10 8V10C10 10.2833 10.0958 10.5208 10.2875 10.7125C10.4792 10.9042 10.7167 11 11 11H13ZM7 20C7.28333 20 7.52083 19.9042 7.7125 19.7125C7.90417 19.5208 8 19.2833 8 19V16C8 15.7167 7.90417 15.4792 7.7125 15.2875C7.52083 15.0958 7.28333 15 7 15H5C4.71667 15 4.47917 15.0958 4.2875 15.2875C4.09583 15.4792 4 15.7167 4 16V19C4 19.2833 4.09583 19.5208 4.2875 19.7125C4.47917 19.9042 4.71667 20 5 20H7ZM7 14C7.28333 14 7.52083 13.9042 7.7125 13.7125C7.90417 13.5208 8 13.2833 8 13V11C8 10.7167 7.90417 10.4792 7.7125 10.2875C7.52083 10.0958 7.28333 10 7 10H5C4.71667 10 4.47917 10.0958 4.2875 10.2875C4.09583 10.4792 4 10.7167 4 11V13C4 13.2833 4.09583 13.5208 4.2875 13.7125C4.47917 13.9042 4.71667 14 5 14H7Z" fill="#333333"/>
</g>
</svg>
